<?xml version="1.0" encoding="UTF-8"?>
<svg xmlns="http://www.w3.org/2000/svg" viewBox="0 0 624 1024">
  <title>BipBop Labs — Logo</title>
  <g transform="translate(0,1024) scale(0.1,-0.1)" fill="#161513">
      <path d="M2465 10230 c-22 -4 -74 -14 -115 -20 -246 -41 -455 -144 -650 -324 -109 -99 -235 -294 -293 -451 -116 -315 -138 -662 -67 -1050 50 -267 79 -923 51 -1140 -6 -49 -14 -110 -16 -135 -9 -77 -15 -111 -47 -245 -36 -157 -94 -363 -118 -425 -16 -41 -36 -95 -123 -325 -16 -44 -45 -116 -63 -160 -18 -44 -52 -127 -75 -185 -23 -58 -50 -127 -61 -155 -110 -277 -304 -844 -363 -1060 -151 -551 -205 -942 -191 -1390 6 -212 15 -317 35 -435 5 -30 17 -107 25 -170 9 -63 23 -153 31 -200 45 -255 53 -396 34 -572 -33 -307 -190 -550 -382 -593 -96 -21 -99 -91 -7 -145 65 -38 139 -54 224 -47 96 9 170 23 203 40 16 8 48 24 73 36 87 41 173 102 237 168 12 13 26 23 30 23 5 0 28 -41 52 -90 24 -50 72 -134 107 -187 65 -99 71 -112 55 -129 -17 -18 -129 -280 -156 -364 -42 -135 -19 -218 74 -267 52 -27 111 -30 190 -8 90 24 150 4 318 -102 139 -89 261 -132 319 -113 65 20 112 57 165 130 32 44 65 78 89 90 49 25 143 40 254 40 197 0 295 75 271 208 -5 28 -21 51 -66 93 -50 47 -101 77 -302 179 -283 142 -325 174 -281 211 9 7 34 39 56 71 63 94 125 159 208 219 62 45 92 59 154 74 187 43 327 -8 423 -156 l44 -69 -19 -28 c-33 -46 -90 -166 -97 -204 -15 -79 27 -153 121 -213 68 -44 463 -238 552 -272 37 -14 92 -35 122 -46 34 -13 80 -21 120 -21 78 -1 139 29 191 95 41 53 112 85 205 93 416 39 488 64 509 179 22 114 -126 222 -430 315 -38 12 -129 39 -201 61 -148 44 -201 65 -226 87 -16 15 -12 20 50 74 117 101 305 318 408 470 159 235 316 585 398 890 51 188 57 217 101 455 26 141 44 332 54 564 20 453 -8 769 -104 1185 -19 82 -35 153 -35 157 0 4 17 11 38 15 91 16 348 130 539 240 290 166 532 337 718 507 99 90 116 108 206 224 120 153 202 387 202 578 0 214 -116 460 -255 543 l-28 16 0 323 c0 443 7 429 -219 427 -245 -2 -720 -33 -753 -50 -57 -29 -62 -49 -62 -248 -1 -156 -3 -180 -16 -176 -8 3 -181 3 -385 2 -334 -4 -374 -6 -413 -23 -71 -30 -72 -37 -72 -436 l-1 -348 -84 -41 -85 -40 -41 55 c-23 30 -43 62 -47 70 -3 9 -20 36 -37 61 -31 42 -95 152 -178 301 -60 109 -143 327 -166 436 -22 105 -33 274 -20 328 3 17 13 57 20 90 18 83 50 135 128 211 l66 65 87 -7 c224 -16 673 -5 803 21 131 26 186 115 135 220 -42 87 -162 166 -525 347 -132 66 -241 121 -241 122 -1 0 -7 82 -13 181 -15 220 -39 364 -87 514 -45 145 -74 210 -121 275 -149 205 -415 378 -695 451 -133 35 -371 53 -463 35z m335 -475 c171 -28 299 -104 483 -287 141 -142 236 -181 324 -136 l33 16 14 -51 c20 -70 46 -281 49 -391 l2 -90 -65 -10 c-70 -12 -145 -44 -189 -82 -15 -12 -58 -64 -96 -114 -52 -68 -93 -109 -163 -161 -127 -96 -156 -150 -116 -218 27 -45 161 -109 234 -112 14 0 42 -6 63 -12 l38 -12 -44 -50 c-101 -115 -159 -332 -138 -520 16 -149 36 -243 77 -360 34 -97 196 -420 247 -492 20 -29 37 -55 37 -59 0 -3 34 -58 76 -122 l77 -115 -24 -19 c-13 -11 -71 -62 -129 -113 -113 -101 -130 -114 -260 -202 -174 -116 -311 -181 -445 -207 -34 -7 -139 26 -197 62 -19 12 -38 22 -41 22 -7 0 -136 78 -167 102 -93 69 -237 187 -300 247 -79 74 -108 85 -142 54 -10 -9 -18 -30 -18 -46 0 -26 18 -48 108 -137 59 -58 143 -133 187 -165 44 -32 103 -76 131 -97 81 -60 294 -164 367 -178 52 -10 74 -9 132 5 156 36 457 204 625 349 268 232 366 301 490 346 88 33 136 37 164 17 31 -23 14 -49 -79 -119 -136 -104 -235 -202 -235 -233 0 -17 7 -28 23 -34 29 -11 41 -6 102 41 88 69 230 173 254 186 32 19 43 1 38 -62 -4 -49 -6 -51 -160 -203 -86 -85 -159 -163 -162 -174 -9 -27 12 -49 46 -49 29 0 111 63 222 169 l47 45 0 -28 c0 -72 -164 -357 -303 -529 -386 -475 -748 -730 -1160 -818 -355 -75 -762 11 -1062 226 -85 61 -101 68 -125 55 -72 -39 -32 -101 137 -216 151 -102 378 -187 574 -214 107 -16 428 -7 514 13 105 25 219 59 245 72 14 7 75 36 135 65 285 135 594 407 870 764 l60 78 22 -51 c28 -63 146 -415 166 -496 39 -154 47 -188 71 -310 22 -115 61 -396 64 -465 7 -148 7 -557 0 -635 -28 -325 -71 -577 -143 -850 -133 -504 -384 -951 -707 -1260 -186 -179 -319 -244 -519 -251 -77 -3 -108 0 -155 16 -68 24 -84 37 -135 111 -62 92 -191 184 -286 205 -134 29 -300 5 -419 -61 -80 -44 -207 -167 -273 -266 -114 -168 -216 -225 -417 -237 -99 -5 -168 9 -255 54 -47 23 -117 102 -151 169 -8 17 -27 53 -41 81 -32 62 -106 238 -117 279 -10 37 -59 179 -75 220 -37 92 -142 608 -172 840 -20 163 -23 607 -5 743 39 290 132 623 300 1077 90 244 125 335 142 375 22 52 67 194 104 330 25 88 50 205 106 500 48 248 117 423 280 708 107 188 202 382 242 492 91 252 122 452 114 735 -5 199 -10 237 -85 615 -50 255 -76 478 -67 574 22 243 76 417 199 638 50 91 174 224 273 295 64 45 199 105 277 122 104 24 140 24 257 6z m1179 -1201 c140 -69 297 -151 350 -182 91 -54 161 -112 161 -132 0 -55 -713 -66 -1030 -17 -14 2 -45 7 -70 11 -57 9 -168 45 -175 56 -3 5 27 34 67 64 84 62 151 130 197 198 50 75 135 125 216 127 20 1 119 -43 284 -125z m1847 -890 c4 -14 4 -175 1 -357 -6 -329 -8 -346 -39 -347 -5 0 -25 -15 -45 -34 l-38 -34 -316 -7 c-289 -7 -316 -6 -332 9 -15 16 -17 52 -17 374 0 206 4 363 10 372 7 12 63 18 282 31 150 9 321 17 380 18 l108 1 6 -26z m-992 -450 c14 -13 16 -55 16 -309 0 -281 -1 -295 -19 -305 -12 -6 -136 -10 -334 -10 -275 0 -316 2 -328 16 -10 12 -12 78 -11 302 2 157 5 288 8 291 7 8 356 27 521 29 108 2 134 -1 147 -14z m1142 -346 c35 -43 98 -178 114 -248 28 -117 5 -284 -56 -421 -15 -32 -28 -59 -30 -59 -2 0 -19 11 -39 24 -20 14 -49 28 -66 31 -41 9 -109 75 -109 106 0 41 11 46 107 51 55 2 98 9 107 17 18 15 22 66 5 76 -6 4 -56 8 -112 10 -90 3 -104 6 -119 25 -34 41 -16 100 30 100 15 0 62 12 105 26 83 28 114 56 102 93 -10 32 -49 36 -121 12 -82 -27 -90 -26 -110 4 -15 23 -15 27 3 62 10 21 33 47 51 58 18 11 47 30 65 42 18 12 35 22 39 22 3 1 19 -14 34 -31z m-829 -108 l143 -5 -28 -42 c-15 -23 -40 -56 -55 -73 -27 -29 -29 -30 -120 -30 -59 0 -97 4 -105 12 -7 7 -12 42 -12 86 0 67 2 73 18 66 9 -5 81 -11 159 -14z m496 -27 c3 -16 9 -39 12 -53 13 -51 -7 -60 -154 -65 -74 -2 -138 -2 -143 1 -5 3 3 21 17 40 14 19 33 50 41 69 l14 35 104 0 104 0 5 -27z m-12 -250 c11 -13 15 -81 17 -321 3 -276 1 -306 -14 -323 -16 -18 -36 -19 -327 -19 -275 0 -313 2 -329 17 -17 15 -18 38 -18 323 0 240 3 310 13 318 16 13 99 17 408 20 209 2 238 0 250 -15z m-793 -5 c17 -17 17 -629 0 -646 -15 -15 -418 -17 -418 -3 0 5 5 22 11 38 22 59 27 115 14 167 -11 43 -11 55 2 79 21 41 28 127 14 170 -7 20 -28 51 -47 69 -20 19 -34 42 -34 56 0 13 -7 36 -15 52 l-16 30 239 0 c172 0 241 -3 250 -12z m1075 -428 c33 0 34 -12 5 -53 -30 -42 -128 -151 -139 -155 -5 -2 -9 57 -9 137 l0 140 58 -34 c31 -19 69 -35 85 -35z m-363 -353 l65 -2 -80 -61 c-235 -178 -592 -390 -815 -482 -118 -49 -218 -78 -229 -66 -7 8 -32 74 -92 244 -7 19 -32 84 -57 144 l-44 110 28 58 28 58 260 2 c256 3 808 0 936 -5z m-1984 -4657 c32 -22 62 -40 68 -40 6 0 45 -13 86 -29 41 -16 107 -38 145 -49 267 -77 417 -133 486 -183 28 -20 29 -22 14 -39 -21 -23 -48 -28 -244 -46 -166 -14 -260 -33 -316 -61 -16 -9 -60 -45 -97 -81 -76 -73 -94 -77 -188 -44 -143 51 -590 267 -657 318 -41 31 -44 75 -8 128 14 21 34 55 45 77 11 21 24 39 28 39 4 0 30 -7 57 -16 81 -26 268 -22 376 9 47 13 98 31 115 39 16 9 30 16 31 17 1 1 28 -17 59 -39z m-1728 -241 c30 -26 118 -76 242 -136 265 -130 360 -187 360 -219 0 -26 -43 -35 -193 -44 -242 -14 -307 -45 -403 -190 -33 -50 -73 -73 -111 -64 -40 10 -137 59 -213 109 -164 107 -279 135 -397 98 -64 -20 -103 -11 -117 28 -9 28 29 132 122 330 l51 107 73 -25 c142 -47 389 -32 498 32 35 20 37 20 88 -26z"/>
      <path d="M2850 8937 c-13 -7 -35 -28 -48 -47 -45 -67 -14 -155 65 -181 44 -14 74 -6 117 32 40 35 52 75 36 124 -24 71 -104 106 -170 72z"/>
  </g>
</svg>
