<?xml version="1.0" encoding="UTF-8"?>
<svg xmlns="http://www.w3.org/2000/svg" viewBox="0 0 728 620">
  <title>bipbop.cl — icon lockup (on light)</title>
  <g fill="#161513" transform="translate(204,40) scale(0.642570)">
    <g transform="translate(0,512) scale(0.1,-0.1)">
      <path d="M1940 5114 c-570 -70 -975 -282 -1261 -663 -91 -121 -210 -351 -258 -499 -74 -227 -104 -424 -104 -672 1 -213 16 -337 73 -610 88 -413 103 -531 103 -810 1 -413 -43 -613 -265 -1205 -97 -258 -228 -633 -228 -651 0 -2 150 -4 333 -4 l332 0 39 93 c22 50 113 247 204 437 180 379 208 444 251 588 49 167 66 293 65 512 0 218 -7 282 -69 660 -70 422 -70 421 -70 735 0 263 2 300 23 392 130 591 544 1000 1066 1053 325 33 615 -82 931 -369 117 -107 176 -136 272 -136 60 1 81 6 133 32 l61 32 25 -57 c79 -176 114 -341 121 -569 l6 -173 -65 0 c-174 0 -312 -78 -453 -255 -58 -73 -97 -110 -168 -159 -51 -36 -109 -77 -129 -91 -83 -58 -115 -172 -71 -247 54 -93 255 -178 506 -213 l47 -6 -51 -57 c-91 -102 -158 -239 -185 -379 -19 -98 -18 -334 1 -443 33 -186 84 -301 238 -536 58 -88 130 -204 162 -259 66 -113 218 -416 260 -517 l28 -68 124 0 c147 0 142 -24 41 194 -123 266 -268 527 -426 765 -146 221 -189 320 -217 511 -30 193 -14 357 46 478 39 79 130 178 219 237 l68 45 253 0 c381 0 691 26 834 71 115 35 195 121 195 209 0 50 -40 128 -91 177 -121 114 -520 323 -856 448 l-103 38 0 153 c0 390 -93 710 -294 1016 -257 390 -707 666 -1226 753 -91 16 -398 28 -470 19z m1852 -2100 c380 -120 988 -426 988 -498 0 -30 -117 -54 -380 -77 -181 -17 -743 -17 -890 -1 -231 26 -490 92 -490 127 0 6 39 38 88 70 123 82 170 124 251 224 79 98 126 136 204 162 72 25 132 23 229 -7z"/>
      <path d="M2535 3385 c-83 -29 -137 -124 -115 -205 21 -79 86 -130 165 -130 88 0 153 49 176 133 33 125 -101 246 -226 202z"/>
    </g>
  </g>
  <g style="fill:#161513;stroke:#161513;stroke-width:1.4;paint-order:stroke fill" aria-label="bipbop.cl">
    <path d="m 186.09487,521.17 q -5.33,0 -10.27,-3.38 -2.86,-1.95 -5.2,1.04 -1.3,1.43 -1.95,1.82 -0.65,0.52 -1.3,0.52 -1.43,0 -1.04,-1.82 0.52,-2.99 0.78,-7.67 0.26,-4.68 0.26,-12.48 v -62.4 q 0,-2.34 -0.78,-3.12 -0.65,-0.91 -2.47,-1.17 l -2.73,-0.39 q -1.43,-0.26 -1.43,-1.56 0,-1.3 1.43,-1.56 3.64,-0.78 6.11,-1.82 2.47,-1.04 4.16,-2.08 2.08,-1.3 3.12,-1.3 1.43,0 1.43,2.08 v 32.11 q 0,1.04 0.78,1.43 0.91,0.26 1.95,-0.78 5.59,-5.72 12.22,-5.72 5.98,0 10.53,4.03 4.68,3.9 7.28,10.92 2.73,7.02 2.73,16.51 0,10.79 -3.38,19.11 -3.38,8.32 -9.23,13 -5.72,4.68 -13,4.68 z m -0.26,-3.25 q 7.28,0 11.7,-8.58 4.55,-8.58 4.55,-23.14 0,-13.39 -3.9,-20.41 -3.9,-7.02 -11.05,-7.02 -4.42,0 -7.67,3.64 -3.25,3.64 -3.25,10.14 v 32.76 q 0,5.85 2.6,9.23 2.73,3.38 7.02,3.38 z m 45.8901,-76.57 q -2.73,0 -4.68,-1.95 -1.82,-1.95 -1.82,-4.94 0,-2.99 1.82,-4.81 1.95,-1.95 4.68,-1.95 2.73,0 4.55,1.95 1.82,1.82 1.82,4.81 0,2.99 -1.82,4.94 -1.82,1.95 -4.55,1.95 z m -10.92,78.65 q -1.95,0 -1.95,-1.43 0,-1.17 1.69,-1.56 l 1.56,-0.26 q 3.25,-0.52 4.16,-1.56 0.91,-1.17 0.91,-3.9 v -43.68 q 0,-2.34 -0.78,-3.12 -0.65,-0.91 -2.47,-1.17 l -2.73,-0.39 q -1.69,-0.13 -1.69,-1.43 0,-1.04 2.08,-1.43 4.03,-0.65 6.5,-2.08 2.47,-1.43 4.81,-3.51 1.17,-1.17 1.95,-1.17 1.17,0 1.17,1.56 v 56.42 q 0,2.73 0.78,3.9 0.78,1.17 2.99,1.43 l 3.25,0.39 q 1.43,0.26 1.43,1.43 0,1.56 -1.95,1.56 z m 28.59994,26.65 q -1.95,0 -1.95,-1.43 0,-1.43 1.69,-1.56 l 1.82,-0.26 q 2.73,-0.39 3.51,-1.56 0.91,-1.17 0.91,-3.9 v -70.33 q 0,-2.34 -0.78,-3.12 -0.65,-0.91 -2.47,-1.17 l -2.73,-0.39 q -1.69,-0.13 -1.69,-1.43 0,-1.04 2.08,-1.43 4.03,-0.65 6.11,-2.08 2.21,-1.43 4.55,-3.51 1.17,-1.17 1.95,-1.17 1.17,0 1.17,1.56 v 4.03 q 0,0.91 0.78,1.3 0.78,0.26 1.82,-0.78 l 1.43,-1.43 q 2.6,-2.6 5.33,-3.77 2.73,-1.3 6.24,-1.3 5.98,0 10.53,4.03 4.68,3.9 7.28,10.92 2.73,7.02 2.73,16.51 0,10.79 -3.38,19.11 -3.38,8.32 -9.36,13 -5.85,4.68 -13.52,4.68 -3.9,0 -6.89,-1.43 -2.34,-1.04 -2.34,1.43 v 16.77 q 0,2.73 0.78,3.64 0.91,1.04 3.64,1.43 l 4.81,0.65 q 1.43,0.26 1.43,1.43 0,1.56 -1.95,1.56 z m 24.44,-28.73 q 7.28,0 11.7,-8.58 4.55,-8.58 4.55,-23.14 0,-13.39 -3.9,-20.41 -3.9,-7.02 -11.05,-7.02 -4.42,0 -7.67,3.64 -3.25,3.64 -3.25,10.14 v 32.76 q 0,5.85 2.6,9.23 2.73,3.38 7.02,3.38 z"/>
    <path style="fill:#3d7a3a;stroke:#3d7a3a" d="m 330.39494,521.17 q -5.33,0 -10.27,-3.38 -2.86,-1.95 -5.2,1.04 -1.3,1.43 -1.95,1.82 -0.65,0.52 -1.3,0.52 -1.43,0 -1.04,-1.82 0.52,-2.99 0.78,-7.67 0.26,-4.68 0.26,-12.48 v -62.4 q 0,-2.34 -0.78,-3.12 -0.65,-0.91 -2.47,-1.17 l -2.73,-0.39 q -1.43,-0.26 -1.43,-1.56 0,-1.3 1.43,-1.56 3.64,-0.78 6.11,-1.82 2.47,-1.04 4.16,-2.08 2.08,-1.3 3.12,-1.3 1.43,0 1.43,2.08 v 32.11 q 0,1.04 0.78,1.43 0.91,0.26 1.95,-0.78 5.59,-5.72 12.22,-5.72 5.98,0 10.53,4.03 4.68,3.9 7.28,10.92 2.73,7.02 2.73,16.51 0,10.79 -3.38,19.11 -3.38,8.32 -9.23,13 -5.72,4.68 -13,4.68 z m -0.26,-3.25 q 7.28,0 11.7,-8.58 4.55,-8.58 4.55,-23.14 0,-13.39 -3.9,-20.41 -3.9,-7.02 -11.05,-7.02 -4.42,0 -7.67,3.64 -3.25,3.64 -3.25,10.14 v 32.76 q 0,5.85 2.6,9.23 2.73,3.38 7.02,3.38 z m 57.46011,3.25 q -6.63,0 -11.96,-4.42 -5.2,-4.55 -8.32,-12.35 -3.12,-7.8 -3.12,-17.42 0,-9.62 3.12,-17.29 3.12,-7.67 8.45,-12.22 5.33,-4.55 11.83,-4.55 6.63,0 11.83,4.55 5.33,4.55 8.45,12.22 3.12,7.67 3.12,17.29 0,9.62 -3.12,17.42 -2.99,7.8 -8.32,12.35 -5.33,4.42 -11.96,4.42 z m 0,-3.25 q 13.52,0 13.52,-30.94 0,-30.81 -13.52,-30.81 -13.52,0 -13.52,30.81 0,30.94 13.52,30.94 z m 30.16011,28.73 q -1.95,0 -1.95,-1.43 0,-1.43 1.69,-1.56 l 1.82,-0.26 q 2.73,-0.39 3.51,-1.56 0.91,-1.17 0.91,-3.9 v -70.33 q 0,-2.34 -0.78,-3.12 -0.65,-0.91 -2.47,-1.17 l -2.73,-0.39 q -1.69,-0.13 -1.69,-1.43 0,-1.04 2.08,-1.43 4.03,-0.65 6.11,-2.08 2.21,-1.43 4.55,-3.51 1.17,-1.17 1.95,-1.17 1.17,0 1.17,1.56 v 4.03 q 0,0.91 0.78,1.3 0.78,0.26 1.82,-0.78 l 1.43,-1.43 q 2.6,-2.6 5.33,-3.77 2.73,-1.3 6.24,-1.3 5.98,0 10.53,4.03 4.68,3.9 7.28,10.92 2.73,7.02 2.73,16.51 0,10.79 -3.38,19.11 -3.38,8.32 -9.36,13 -5.85,4.68 -13.52,4.68 -3.9,0 -6.89,-1.43 -2.34,-1.04 -2.34,1.43 v 16.77 q 0,2.73 0.78,3.64 0.91,1.04 3.64,1.43 l 4.81,0.65 q 1.43,0.26 1.43,1.43 0,1.56 -1.95,1.56 z m 24.44,-28.73 q 7.28,0 11.7,-8.58 4.55,-8.58 4.55,-23.14 0,-13.39 -3.9,-20.41 -3.9,-7.02 -11.05,-7.02 -4.42,0 -7.67,3.64 -3.25,3.64 -3.25,10.14 v 32.76 q 0,5.85 2.6,9.23 2.73,3.38 7.02,3.38 z"/>
    <path d="m 485.87519,521.17 q -2.86,0 -4.94,-1.82 -1.95,-1.95 -1.95,-5.07 0,-2.99 1.95,-4.81 2.08,-1.95 4.94,-1.95 2.6,0 4.68,1.95 2.08,1.82 2.08,4.81 0,3.12 -2.08,5.07 -2.08,1.82 -4.68,1.82 z m 33.53993,0 q -5.72,0 -10.4,-3.77 -4.55,-3.9 -7.28,-11.05 -2.73,-7.15 -2.73,-17.03 0,-11.05 3.25,-19.24 3.38,-8.19 9.1,-12.61 5.72,-4.55 12.74,-4.55 5.98,0 9.36,2.34 1.3,0.91 1.3,2.86 l 0.26,15.86 q 0,1.95 -1.56,1.95 -1.43,0 -1.82,-1.69 -1.82,-7.15 -3.51,-11.05 -1.69,-3.9 -3.51,-5.33 -1.82,-1.56 -4.03,-1.56 -2.6,0 -5.46,2.99 -2.73,2.99 -4.68,9.75 -1.82,6.63 -1.82,17.55 0,13.91 3.51,20.93 3.64,7.02 9.36,7.02 4.55,0 7.54,-3.77 3.12,-3.77 5.33,-13.65 0.39,-1.43 1.56,-1.43 1.56,0 1.17,2.6 -1.43,9.1 -4.03,14.17 -2.47,4.94 -5.98,6.89 -3.38,1.82 -7.67,1.82 z m 23.2701,-1.17 q -1.56,0 -1.56,-1.43 0,-1.3 1.43,-1.56 l 1.82,-0.26 q 2.73,-0.39 4.03,-1.56 1.3,-1.17 1.3,-3.9 V 436.8 q 0,-2.34 -0.78,-3.25 -0.65,-0.91 -2.47,-1.04 l -2.99,-0.39 q -1.43,-0.26 -1.43,-1.56 0,-1.3 1.43,-1.56 3.64,-0.78 6.24,-1.82 2.6,-1.04 4.29,-2.08 2.08,-1.3 3.12,-1.3 1.43,0 1.43,2.08 v 85.41 q 0,2.73 0.78,3.9 0.91,1.04 3.64,1.43 l 2.99,0.39 q 1.43,0.26 1.43,1.56 0,1.43 -1.56,1.43 z"/>
  </g>
</svg>
